<?xml version="1.0" encoding="utf-8"?>
<!-- Generator: Adobe Illustrator 27.0.1, SVG Export Plug-In . SVG Version: 6.00 Build 0)  -->
<svg version="1.1" id="Layer_1" xmlns="http://www.w3.org/2000/svg" xmlns:xlink="http://www.w3.org/1999/xlink" x="0px" y="0px"
	 viewBox="0 0 600 600" style="enable-background:new 0 0 600 600;" xml:space="preserve">
<g>
	<path d="M51.52,482.61c10.28-30.57,28.9-56.06,48.9-80.76c28.69-35.44,61.77-66.71,93.99-98.77c14.1-14.02,29.19-27.04,43.54-40.81
		c11.64-11.17,19.49-24.99,26.13-39.56c7.6-16.68,16.26-33,29.65-45.59c12-11.28,22.26-24.17,34.59-35.05
		c2.01-1.77,3.14-3.39,1.77-6.38c-1.91-4.18-0.7-8.16,2.52-11.38c14.67-14.72,29.34-29.43,44.08-44.07
		c4.64-4.61,10.06-4.83,15.25-0.81c1.57,1.21,2.92,2.71,4.33,4.12c48.66,48.65,97.31,97.33,146.01,145.94
		c3.44,3.44,6.71,6.88,8.18,11.64c0,1,0,2,0,2.99c-3,6.77-8.6,11.4-13.89,16.09c-12.41,11.02-23.74,23.2-36.55,33.81
		c-21.64,17.93-43.26,35.86-69.53,46.87c-5.82,2.44-11.88,4.13-18.16,5.24c-3.98,0.7-5.97-0.68-7.37-4
		c-2.79-6.64-4.24-13.68-5.63-20.65c-3.65-18.24-6.89-36.56-10.24-54.85c-0.88-4.78,0.65-8.88,4.06-12.26
		c5.54-5.5,11.1-10.99,16.02-17.06c1.36-1.67,2.79-3.31,3.94-5.13c7.04-11.16,3.88-19.83-8.63-23.89c-1.57-0.51-3.55-0.79-4.51-1.9
		c-3.47-4.01-5.36-3.02-8.56,0.84c-25.15,30.34-53.13,58.04-81.39,85.42c-20.87,20.22-41.54,40.67-62.71,60.55
		c-14.07,13.21-26.9,27.55-40.53,41.13c-26.48,26.37-48,56.48-65.44,89.6c-6.97,13.23-12.97,26.88-19.55,40.27
		c-4.23,8.62-8.55,10.03-17.2,5.69c-13.86-6.95-25.94-16.6-38.35-25.73c-5.02-3.69-10.95-6.27-14.73-11.55
		C51.52,489.27,51.52,485.94,51.52,482.61z"/>
</g>
</svg>
