<?xml version="1.0" encoding="utf-8"?>
<!-- Generator: Adobe Illustrator 27.0.1, SVG Export Plug-In . SVG Version: 6.00 Build 0)  -->
<svg version="1.1" id="Layer_1" xmlns="http://www.w3.org/2000/svg" xmlns:xlink="http://www.w3.org/1999/xlink" x="0px" y="0px"
	 viewBox="0 0 600 600" style="enable-background:new 0 0 600 600;" xml:space="preserve">
<path d="M232.39,239.77c-28.43-27.79-56.35-56.09-84.52-84.15c-2.17-2.16-4.11-6.22-7.2-5.46c-4.06,0.99-2.94,5.72-3.56,9.01
	c-0.51,2.73-0.47,5.68-4.78,8.32c-12.69-25.75-25.29-51.33-37.89-76.91c0.73-0.86,1.46-1.72,2.19-2.58
	c25.74,12.63,51.48,25.25,77.44,37.99c-2.91,4.42-6.22,4.32-9.31,4.81c-3.02,0.48-7.13-0.29-8.24,3.18
	c-0.94,2.93,2.69,4.59,4.59,6.5c28.55,28.67,57.37,57.07,85.62,86.03l79.06,79.06c18.66,17.63,37.02,35.63,54.46,54.45
	c15.33,16.54,32.6,29.37,53.54,38.01c27.01,11.15,41.39,36.91,64.48,55.94c-8.93,2.38-14.77-0.27-20.61-1.43
	c-23.56-4.68-23.44-4.81-18.58,19.18c1.14,5.64,3.49,11.26,2.13,18.27c-9.49-5.88-15.3-14.42-22.89-20.96
	c-19.25-16.57-34.27-36.06-42.79-60.27c-2.61-7.42-7.55-13.31-13.15-18.84c-24.01-23.74-47.88-47.63-71.63-71.63L232.39,239.77z
	 M261.38,225.31c12.46-17.03,25.69-33.52,37.7-50.86c32.18-46.48,76.25-70.53,132.73-71.64c33.54-0.66,62.39-12.59,86.8-35.37
	c6.46-6.03,12.53-7.5,19.13-0.6c0,3.52,0,7.04,0,10.56c-8.06,7.85-16.2,15.6-24.16,23.55c-62.47,62.39-124.81,124.91-187.47,187.1
	l-29.07,29.18c-72.45,72.79-145.11,145.38-217.71,218.04c-0.74,0.74-1.31,1.65-1.95,2.48c-3.52,0-7.04,0-10.56,0
	c-6.97-6.62-5.32-12.73,0.64-19.14c23.3-25.03,34.66-54.63,35.48-88.94c1.28-53.39,23.59-96.03,67.27-127.43
	c20.84-14.98,40.88-31.08,61.63-46.19L261.38,225.31z"/>
</svg>
