<?xml version="1.0" encoding="utf-8"?>
<!-- Generator: Adobe Illustrator 27.0.1, SVG Export Plug-In . SVG Version: 6.00 Build 0)  -->
<svg version="1.1" id="Layer_1" xmlns="http://www.w3.org/2000/svg" xmlns:xlink="http://www.w3.org/1999/xlink" x="0px" y="0px"
	 viewBox="0 0 600 600" style="enable-background:new 0 0 600 600;" xml:space="preserve">
<style type="text/css">
	.st0{fill:none;stroke:#000000;stroke-miterlimit:10;}
</style>
<g>
	<path class="st0" d="M91.78,401.54c1.27-11.11,3.23-14.53,10-22.41c4.85-5.64,8.73-8.22,9.42-8.67c12.48-8.11,23-9.4,37.55-5.86
		c14.85,3.61,26.01,11.03,32.96,23.39c2.41,4.29,3.92,9.02,4.66,13.89l2.34,15.5c0.59,3.91,3.94,6.82,7.89,6.86
		c3.65,0.04,7.51,0.05,8.31,0.07c2.28,0.04,4.2-0.81,5.9-2.26c4.27-3.65,7.12-8.07,8.62-13.6c3.15-11.59,3.12-23.56,4.81-35.32
		c0.3-2.07-1.13-4.9,2.41-5.67c3.04-0.66,5.73-1.73,8.43,1.58c2.76,3.39,6.69,5.69,11.45,3.6c3.79-1.67,4.97-0.05,4.97,3.47
		c0,1,0.02,2,0.02,2.99c-0.17,25.22-0.13,50.43,1.98,75.59c0.57,6.77,4.08,10.45,10.67,10.53c6.27,0.08,10.55-3.31,10.89-8.91
		c0.2-3.31,0.26-6.68-0.1-9.96c-1.94-17.68-1.91-35.41-1.83-53.16c0.01-2.33,0.57-3.84,3.33-3.78c2.96,0.06,3.29,2.01,2.91,4.08
		c-1.92,10.23-0.31,20.56-0.91,28.87c0,10.09,0.03,18.24-0.02,26.38c-0.02,2.4,0.32,4.64,1.88,6.54c3.06,3.73,6.71,5.89,11.73,4.36
		c5.07-1.54,7.9-5.25,8.01-10.65c0.39-19.08-0.77-38.18,0.91-57.26c0.32-3.66,1.17-5,5.1-5.48c13.27-1.61,26.58-1.15,39.79-0.57
		c7.54,0.33,15.22-0.07,22.75,1.47c2.64,0.54,3.26,1.64,3.83,4.12c1.1,4.8,0.36,9.62,0.95,14.37c1.81,14.44,2.85,28.95,3.8,43.46
		c0.47,7.14,4.3,11.19,11.16,11.13c6.83-0.06,10.44-3.81,10.48-11.02c0.05-8.95-1.24-17.81-1.98-26.71
		c-0.85-10.21-1.65-20.42-2.58-30.63c-0.13-1.39-0.59-2.76,1.15-3.26c1.8-0.51,2.98,0.6,3.35,2.16c0.45,1.92,0.53,3.93,0.71,5.91
		c0.95,10.19,2.21,20.26,1.07,30.64c-0.92,8.34-1.95,16.81-1.36,25.29c0.25,3.6,1.26,6.81,4.64,8.8c7.91,4.65,16.42-0.1,16.93-9.51
		c0.42-7.77,0.22-15.63,1.29-23.31c1.59-11.5,0.28-22.79-0.91-34.14c-1.04-9.87-2.96-19.63-2.38-29.66
		c0.58-10.15,1.94-19.76,11.19-26.2c2.7-1.88,5.15-4.17,7.51-6.49c1.98-1.95,3.22-0.79,4.52,0.65c3.58,3.98,7.84,7.14,12.25,10.1
		c6.68,4.49,18.07,5.6,24.5-0.71c3.15-3.09,6.61-5.95,9.88-8.98c7.8-7.26,9.04-14.09,4.04-22.99c-2.84-5.05-5.6-10.15-8.54-15.14
		c-10.02-17.04-22.12-32.24-38.94-43.1c-2.21-1.43-1.54-2.66-0.99-4.52c2.64-8.97-1.44-14.91-10.5-15.27
		c-2.22-0.09-3.68-0.86-5.09-2.48c-3.34-3.83-7.91-4.31-12.35-3.19c-4.52,1.14-6.79,4.76-8.01,9.28c-1.93,7.14-2.14,14.99,0.7,20.99
		c4.04,8.54-1.05,12.34-5.2,17.34c-1.8,2.16-3.62,4.3-5.47,6.42c-7.48,8.59-15.87,14.15-28.32,13.68
		c-19.04-0.73-38.09-0.82-57.14-2.05c-13.25-0.86-26.59-0.29-39.89-0.1c-3.94,0.06-7.83,1.12-11.56,2.61
		c-5.09,2.04-8.31,5.7-8.76,11.09c-0.76,9.19-2.83,17.84-7.67,25.82c-1.69,2.79-2.54,6.09-3.79,9.16c-0.74,1.8-1.8,3.02-4.01,3.13
		c-2.63,0.14-5.37,0.26-7.83,1.09c-4.01,1.36-5.63-0.52-7.04-3.82c-4.87-11.43-14.32-16.82-25.94-19.28
		c-15.48-3.27-30.92-1.88-46.43-0.11c-22.81,2.61-45.63,5.19-68.28,8.99c-6.5,1.09-6.91,0.66-7.02-6.02c-0.01-0.33,0-0.67-0.01-1
		c-0.28-7.03-4.44-10.95-11.44-10.81c-6.52,0.14-10.14,3.91-10.15,10.84c-0.01,10.77,0.41,21.45,1.68,32.22
		c1.86,15.75,3.31,31.55,6.37,47.13c1.91,9.74,4.36,19.41,15.29,23.21c1.35,0.47,2.82,0.82,4.32,1.09c4.22,0.74,8.2-2.18,8.73-6.43
		L91.78,401.54z"/>
</g>
</svg>
