<?xml version="1.0" encoding="utf-8"?>
<!-- Generator: Adobe Illustrator 27.0.1, SVG Export Plug-In . SVG Version: 6.00 Build 0)  -->
<svg version="1.1" id="Layer_1" xmlns="http://www.w3.org/2000/svg" xmlns:xlink="http://www.w3.org/1999/xlink" x="0px" y="0px"
	 viewBox="0 0 600 600" style="enable-background:new 0 0 600 600;" xml:space="preserve">
<g>
	<path d="M443.52,330.5c0,15.5,0.09,31-0.02,46.49c-0.38,56.35-43.46,105.59-99.38,111.9c-26.58,3-53.54,3-80.16-0.4
		c-25.08-3.2-46.3-15.09-64.14-32.89c-16.62-16.58-33.08-33.32-49.57-50.04c-7.26-7.36-10.65-16.45-10.79-26.65
		c-0.19-13.83-0.19-27.66-0.01-41.49c0.37-29.75,22.97-54.07,52.66-56.64c3.31-0.29,4.3-1.5,4.22-4.59
		c-0.15-5.16-0.07-10.33-0.02-15.5c0.25-25.49,28.57-44.38,51.98-34.43c4.73,2.01,5,0.69,4.98-3.51
		c-0.14-24.66-0.1-49.33-0.06-73.99c0.04-21.73,17.27-39.12,38.48-38.95c21.15,0.17,38.01,17.34,38.06,38.87
		c0.05,24.66,0.07,49.33-0.04,73.99c-0.02,3.91-0.1,5.82,4.89,3.64c16.92-7.38,38.68,0.85,47.38,17.75
		c1.75,3.39,2.92,4.05,6.57,2.32c25.55-12.12,54.59,6.21,54.95,34.62C443.69,297.5,443.52,314,443.52,330.5z"/>
</g>
</svg>
