<?xml version="1.0" encoding="utf-8"?>
<!-- Generator: Adobe Illustrator 27.0.1, SVG Export Plug-In . SVG Version: 6.00 Build 0)  -->
<svg version="1.1" id="Layer_1" xmlns="http://www.w3.org/2000/svg" xmlns:xlink="http://www.w3.org/1999/xlink" x="0px" y="0px"
	 viewBox="0 0 600 600" style="enable-background:new 0 0 600 600;" xml:space="preserve">
<style type="text/css">
	.st0{fill:none;stroke:#000000;stroke-miterlimit:10;}
</style>
<g>
	<path class="st0" d="M342.11,395.85c-5.65,6.21-12.17,11.63-18.44,17.26c-2.66,2.39-4.1,5.01-3.82,8.73
		c1.01,13.45,1.84,26.91,2.76,40.37c0.24,3.56,2.25,6.12,4.7,8.54c16.12,15.93,32.21,31.88,48.23,47.9
		c3.69,3.69,7.15,7.63,10.56,11.59c3.12,3.61,2.73,4.87-1.84,5.51c-10.05,1.41-20.07,3.17-30.29,2.94
		c-25-0.81-49.63-4.63-74.15-9.25c-13.98-2.63-27.73-6.1-41.26-10.63c-20.43-6.84-33.4-20.69-40.5-40.7
		c-5.42-15.28-8.25-31.1-10.28-47.09c-2.71-21.28-5.39-42.57-8.68-63.77c-0.34-2.19-1.35-3.71-3.03-5.03
		C123.28,320.48,90.4,265.24,67.93,202.9c-12.8-35.53-20.6-72.21-25.44-109.56c-0.92-7.14-0.98-14.48,0.4-21.7
		c2.09-10.92,8.79-17.28,19.4-19.91c8.43-2.09,17.04-2.29,25.55-1.45c28.03,2.74,55.88,6.7,83.01,14.55
		c50.77,14.69,95.9,39.52,134.87,75.37c12.75,11.73,24.68,24.2,35.33,37.85c2.92,3.75,6.26,5.29,11.07,5.52
		c22.46,1.06,44.97,1.16,67.35,3.44c19.95,2.04,39.7,5.24,58.4,13.01c14.6,6.07,24.74,16.39,30.19,31.32
		c13.53,37.08,22.89,75.18,27.73,114.36c1.46,11.79,2.28,23.67,2.64,35.56c0.04,1.45,0.03,2.91-0.06,4.36
		c-0.13,2.01,0.3,4.92-1.33,5.67c-2.25,1.04-3.62-1.81-5.11-3.24c-17.75-16.98-33.76-35.63-51-53.1
		c-3.37-3.41-7.28-6.42-10.05-10.26c-8.24-11.43-19.48-12.39-32.04-10.53c-7.59,1.12-15.29,1.56-22.95,2.05
		c-2.63,0.17-4.14,1.06-5.37,3.45c-3.14,6.07-7.09,11.66-11.13,17.16C397.42,339.51,342.11,395.85,342.11,395.85z"/>
	<path d="M171.56,214.84c17.8-0.02,32.14-12.85,35.67-31.91c3.35-18.06-10.78-35.35-29.09-35.61
		c-18.67-0.27-34.85,14.07-36.85,32.65C139.25,198.86,153.14,214.86,171.56,214.84z"/>
	<path d="M277.61,247.32c0.24-2.22-0.2-5.54-1.11-8.75c-3.03-10.71-9.03-18.92-20.32-21.74c-10.88-2.72-20.37,0.27-28.04,8.52
		c-10.31,11.09-12.07,29.45-4.17,42.45c10.72,17.65,31.81,19.51,45.32,3.88C275,265.06,277.67,257.22,277.61,247.32z"/>
</g>
</svg>
