<?xml version="1.0" encoding="utf-8"?>
<!-- Generator: Adobe Illustrator 27.0.1, SVG Export Plug-In . SVG Version: 6.00 Build 0)  -->
<svg version="1.1" id="Layer_1" xmlns="http://www.w3.org/2000/svg" xmlns:xlink="http://www.w3.org/1999/xlink" x="0px" y="0px"
	 viewBox="0 0 600 600" style="enable-background:new 0 0 600 600;" xml:space="preserve">
<g>
	<path d="M289.75,93.34c9.09,9.68,9.72,21.81,9.58,34.83c4.55-2.96,3.02-9.54,11.31-12.33c-9.29,24.39-17.9,47.2-11.91,72.11
		c2.5-28.84,9.57-55.98,29.22-78.65c-9.72,19.92-11.32,41.57-14.54,63.29c8.57-7.66,11.63-18.21,15.98-28.09
		c4.23-9.6,8.57-19.22,16.42-29.29c-1.19,10.82-5.12,18.57-8.4,28.83c8.88-7.75,14.56-16.77,26.13-16.64
		c-16.23,18.19-35.14,34.25-41.77,59.51c18.03-19.78,37.48-37.31,66.18-43.3c-7.59,8.3-16.33,12.54-25.26,18.93
		c11.11-0.22,17.94-8.61,28.91-8.95c-5.19,9.08-13.02,11.91-21.18,14.15c-9.61,2.65-19.83,4.19-25.66,13.71
		c-2.98,4.86-5.36,10.09-11.9,14.59c23.87-1.21,45.51-1.7,63.5-16.35c0.99-0.8,2.13-1.54,3.33-1.95c4.64-1.59,11.01-3.43,12.95,1.46
		c1.95,4.91-4.99,5.64-8.46,6.78c-16.47,5.41-30.72,16.38-48.35,18.96c-4.27,0.63-9.09-0.62-13.01,2.5c7,6.35,16.54,6.82,28.06,1.6
		c15.51-7.04,31.41-11.3,49.63-6.91c-11.74,14.53-31.09,9.55-44.53,19.14c6.25,6.1,14.76,1.63,23.18,7.21c-12.58,0-22.59,0-33.94,0
		c4.56,6.72,10.65,4.85,15.37,5.67c6.61,1.14,13.52,0.48,20.29,0.78c3.19,0.14,6.45,0.39,9.5,1.24c4.38,1.22,10.76,3.78,9.63,7.82
		c-1.36,4.88-7.66,2.14-11.81,1.19c-18.26-4.17-36.74-6.76-55.41-7.9c-4.42-0.27-8.92,0.89-13.39,1.35
		c-13.39,1.36-26.53,0.33-38.75-5.67c-4.6-2.26-6.78-0.77-9.56,2.7c-33.88,42.34-57.38,90.07-73.73,141.53
		c-2.34,7.37-1.8,14.19,1.88,21.4c11.17,21.87,10.69,44.73,4.09,67.8c-0.7,2.45-1.86,4.83-3.14,7.05
		c-5.2,9.03-10.47,9.41-16.96,1.43c-3.17-3.89-4.93-8.48-5.49-13.26c-2.21-18.95-5.69-38.82,0.47-56.72
		c11.35-32.99,19.01-67.39,36.61-98.22c13.61-23.84,29.24-46.39,42.76-70.24c6.4-11.29,6.26-11.37-5.55-17.27
		c-28.64-14.32-48.11-37.28-61.99-65.59c-2.32-4.72-3.08-10.25-0.96-14.02c4.33-7.72,3.22-13.86-2.94-20.34
		c6.52-2.39,9.82,1.2,12.97,4.68c4.4,4.85,6.48,11.1,9.66,16.69c2.7,4.74,5.36,9.58,8.64,13.91c3.76,4.97,8.94,10.49,15.26,6.31
		c5.38-3.56,0.55-9.36-1.22-13.84c-2.6-6.57-5.85-12.87-8.67-19.36c-3.23-7.43-2.98-14.76,1.34-23.55
		c5.95,14.72,8.93,29.52,22.32,41.31c-3.44-18.98-1.46-35.72,3.96-52.07c0.65,0,1.29,0,1.94,0c6.02,10.86,4.85,22.87,3.05,33.99
		c-2.6,16,6.04,28.32,10.37,42.29c1.54-13.3-0.62-26.91,2.14-39.43c2.88-13.06,4.48-24.84-1.99-36.85
		C287.16,93.34,288.45,93.34,289.75,93.34z"/>
</g>
</svg>
