<?xml version="1.0" encoding="utf-8"?>
<!-- Generator: Adobe Illustrator 27.0.1, SVG Export Plug-In . SVG Version: 6.00 Build 0)  -->
<svg version="1.1" id="Capa_1" xmlns="http://www.w3.org/2000/svg" xmlns:xlink="http://www.w3.org/1999/xlink" x="0px" y="0px"
	 viewBox="0 0 800 800" style="enable-background:new 0 0 800 800;" xml:space="preserve">
<path d="M400,605.63c-113.38,0-205.63-92.25-205.63-205.63S286.62,194.37,400,194.37S605.63,286.62,605.63,400
	S513.38,605.63,400,605.63z"/>
<path d="M400,151.75c-15.96,0-28.9-12.94-28.9-28.9V28.9C371.1,12.94,384.04,0,400,0c15.96,0,28.9,12.94,28.9,28.9v93.96
	C428.9,138.81,415.96,151.75,400,151.75z"/>
<path d="M400,800c-15.96,0-28.9-12.94-28.9-28.9v-93.96c0-15.96,12.94-28.9,28.9-28.9c15.96,0,28.9,12.94,28.9,28.9v93.96
	C428.9,787.07,415.96,800,400,800z"/>
<path d="M771.1,428.9h-93.96c-15.96,0-28.9-12.94-28.9-28.9c0-15.96,12.94-28.9,28.9-28.9h93.96c15.96,0,28.9,12.94,28.9,28.9
	C800,415.96,787.07,428.9,771.1,428.9z"/>
<path d="M122.85,428.9H28.9C12.94,428.9,0,415.96,0,400c0-15.96,12.94-28.9,28.9-28.9h93.96c15.96,0,28.9,12.94,28.9,28.9
	C151.75,415.96,138.81,428.9,122.85,428.9z"/>
</svg>
