<?xml version="1.0" encoding="utf-8"?>
<!-- Generator: Adobe Illustrator 27.0.1, SVG Export Plug-In . SVG Version: 6.00 Build 0)  -->
<svg version="1.1" id="Layer_1" xmlns="http://www.w3.org/2000/svg" xmlns:xlink="http://www.w3.org/1999/xlink" x="0px" y="0px"
	 viewBox="0 0 600 600" style="enable-background:new 0 0 600 600;" xml:space="preserve">
<g>
	<path d="M314.31,163.04c-0.9,23.13-6.27,45.41-12.85,67.47c-1.84,6.15-1.87,6.15,4.6,6.15c27,0,54-0.01,81,0
		c25.59,0.01,42.7,16.59,42.93,42.38c0.22,24.65,1.3,49.37-0.87,73.95c-3.11,35.28-13.05,68.29-35.38,96.63
		c-3.41,4.33-7.41,8.11-11.48,11.83c-7.25,6.62-15.68,8.53-25.4,7.7c-19.22-1.65-38.53-2.33-57.76-3.97
		c-20.67-1.77-41.65-0.79-61.87-6.85c-15.74-4.72-30.47-11.61-44.56-19.99c-2.51-1.49-3.6-3.46-4.1-6.36
		c-7.76-44.91-15.62-89.81-23.55-134.69c-0.61-3.44,0.37-6.08,2.19-8.85c16.21-24.69,34.42-47.9,52.6-71.12
		c23.9-30.52,39.67-64.57,45.83-102.93c0.64-4.01,2.71-4.78,6.24-4.39c22.66,2.56,37.79,17.01,41.32,39.61
		C313.9,154.04,314.64,158.49,314.31,163.04z"/>
</g>
</svg>
